<?xml version="1.0" standalone="no"?>
<!DOCTYPE svg PUBLIC "-//W3C//DTD SVG 20010904//EN"
 "http://www.w3.org/TR/2001/REC-SVG-20010904/DTD/svg10.dtd">
<svg version="1.0" xmlns="http://www.w3.org/2000/svg"
 width="300.000000pt" height="289.000000pt" viewBox="0 0 300.000000 289.000000"
 preserveAspectRatio="xMidYMid meet">
<metadata>
Created by potrace 1.10, written by Peter Selinger 2001-2011
</metadata>
<g transform="translate(0.000000,289.000000) scale(0.100000,-0.100000)"
fill="#000000" stroke="none">
<path d="M1365 2631 c-44 -26 -79 -53 -77 -59 1 -7 31 -54 67 -106 36 -52 65
-99 65 -104 0 -34 -26 -10 -89 83 -39 57 -75 106 -80 109 -8 5 -128 -63 -721
-410 l-135 -79 -3 -60 -3 -60 262 -320 c144 -176 265 -321 269 -323 4 -1 22
30 40 70 18 40 64 138 102 217 37 79 68 145 68 146 0 1 25 56 56 121 31 66 73
155 93 199 100 214 125 265 133 265 4 0 8 -6 8 -12 1 -8 6 -6 14 5 13 17 29
-4 178 -222 89 -132 165 -241 168 -241 5 0 86 145 235 421 l42 76 -229 134
c-126 74 -233 135 -238 137 -8 3 -78 -133 -126 -246 -14 -31 -34 -36 -34 -8 0
8 27 71 60 140 33 70 60 130 60 134 0 12 -60 42 -83 42 -12 -1 -58 -22 -102
-49z"/>
<path d="M2041 2253 c-23 -43 -56 -105 -74 -138 -150 -278 -160 -295 -172
-285 -7 6 -15 6 -21 0 -14 -14 -20 -6 -146 180 -163 240 -191 280 -197 280 -3
0 -35 -62 -70 -138 -36 -75 -86 -182 -112 -237 -26 -55 -83 -176 -127 -270
-177 -381 -174 -375 -187 -365 -7 6 -15 6 -22 -1 -9 -9 -147 150 -343 395 -14
17 -60 73 -102 124 l-78 93 0 -544 0 -545 114 -66 c62 -36 116 -66 120 -66 4
0 27 42 50 93 44 92 98 208 183 390 35 73 50 96 61 92 9 -3 18 -1 22 5 7 11
49 -36 234 -263 44 -53 82 -97 85 -97 4 0 30 44 59 98 28 53 73 135 98 182
260 477 337 616 344 624 6 6 12 3 16 -7 3 -9 -9 -42 -30 -79 -19 -35 -52 -95
-73 -133 -342 -631 -388 -713 -401 -702 -10 8 -16 7 -22 -4 -6 -9 -12 -10 -18
-4 -5 6 -71 87 -147 180 -76 94 -142 174 -146 179 -5 6 -26 -29 -50 -80 -23
-49 -84 -178 -135 -288 -52 -109 -94 -201 -94 -205 0 -12 353 -212 361 -204 4
4 55 97 115 206 83 154 109 195 116 182 7 -12 -17 -65 -96 -210 -58 -107 -106
-198 -106 -202 1 -9 403 -243 418 -243 11 0 222 119 222 126 0 2 -24 32 -53
66 -29 35 -64 77 -77 94 -14 17 -85 104 -158 193 -93 112 -132 167 -128 178 8
21 -14 46 241 -265 198 -241 209 -252 229 -239 11 8 95 57 186 110 l165 96
115 215 c104 196 127 229 137 200 2 -5 -42 -92 -97 -193 -55 -101 -99 -185
-98 -186 5 -5 323 186 323 193 0 4 -26 46 -59 94 -40 59 -57 92 -52 104 5 13
23 -7 77 -84 64 -93 72 -101 89 -89 19 11 20 24 19 262 0 171 -3 245 -10 235
-6 -8 -45 -79 -88 -157 -61 -113 -80 -140 -90 -130 -9 9 -14 9 -21 -3 -5 -8
-11 -12 -13 -10 -2 3 -67 97 -144 210 -77 113 -173 252 -213 310 -168 244
-182 268 -173 284 7 12 39 -28 140 -177 356 -521 408 -597 413 -597 3 0 49 81
103 180 l97 180 -2 341 -3 342 -229 133 c-126 74 -230 134 -231 134 -2 0 -21
-35 -44 -77z"/>
</g>
</svg>
