<svg xmlns="http://www.w3.org/2000/svg" xmlns:xlink="http://www.w3.org/1999/xlink" viewBox="0 0 800 800" width="800" height="800" preserveAspectRatio="xMidYMid meet" style="width: 100%; height: 100%; transform: translate3d(0px, 0px, 0px); content-visibility: visible;"><defs><clipPath id="__lottie_element_2"><rect width="800" height="800" x="0" y="0"></rect></clipPath></defs><g clip-path="url(#__lottie_element_2)"><g transform="matrix(1.0462700128555298,0,0,1.084779977798462,407,397)" opacity="1" style="display: block;"><g opacity="1" transform="matrix(0.8982300162315369,0,0,0.8607699871063232,-7.2769999504089355,-10.07800006866455)"><path stroke-linecap="round" stroke-linejoin="round" fill-opacity="0" stroke="rgb(4,165,208)" stroke-opacity="1" stroke-width="0" d="M0 0"></path></g></g><g transform="matrix(0.5240835547447205,-0.905548095703125,0.9388785362243652,0.5433734655380249,413,385)" opacity="1" style="display: block;"><g opacity="1" transform="matrix(0.8982300162315369,0,0,0.8607699871063232,-7.2769999504089355,-10.07800006866455)"><path stroke-linecap="round" stroke-linejoin="round" fill-opacity="0" stroke="rgb(4,165,208)" stroke-opacity="1" stroke-width="0" d="M0 0"></path></g></g><g transform="matrix(-0.5316985845565796,-0.9010979533195496,0.934264600276947,-0.5512687563896179,406,375)" opacity="1" style="display: block;"><g opacity="1" transform="matrix(0.8982300162315369,0,0,0.8607699871063232,-6.2769999504089355,-10.07800006866455)"><path stroke-linecap="round" stroke-linejoin="round" fill-opacity="0" stroke="rgb(4,165,208)" stroke-opacity="1" stroke-width="0" d="M0 0"></path></g></g><g transform="matrix(1.1971999406814575,0,0,1.1971999406814575,416.6390380859375,416.36798095703125)" opacity="1" style="display: block;"><g opacity="1" transform="matrix(0,0,0,0,-14.32800006866455,-25.327999114990234)"><path fill="rgb(4,165,208)" fill-opacity="1" d=" M0,-38.672000885009766 C21.343076705932617,-38.672000885009766 38.672000885009766,-21.343076705932617 38.672000885009766,0 C38.672000885009766,21.343076705932617 21.343076705932617,38.672000885009766 0,38.672000885009766 C-21.343076705932617,38.672000885009766 -38.672000885009766,21.343076705932617 -38.672000885009766,0 C-38.672000885009766,-21.343076705932617 -21.343076705932617,-38.672000885009766 0,-38.672000885009766z"></path><path stroke-linecap="butt" stroke-linejoin="miter" fill-opacity="0" stroke-miterlimit="4" stroke="rgb(228,56,52)" stroke-opacity="1" stroke-width="0" d=" M0,-38.672000885009766 C21.343076705932617,-38.672000885009766 38.672000885009766,-21.343076705932617 38.672000885009766,0 C38.672000885009766,21.343076705932617 21.343076705932617,38.672000885009766 0,38.672000885009766 C-21.343076705932617,38.672000885009766 -38.672000885009766,21.343076705932617 -38.672000885009766,0 C-38.672000885009766,-21.343076705932617 -21.343076705932617,-38.672000885009766 0,-38.672000885009766z"></path></g></g></g></svg>